<?xml version="1.0" encoding="UTF-8"?>
<!DOCTYPE svg PUBLIC "-//W3C//DTD SVG 1.1//EN" "http://www.w3.org/Graphics/SVG/1.1/DTD/svg11.dtd">
<!-- Creator: CorelDRAW -->
<svg xmlns="http://www.w3.org/2000/svg" xml:space="preserve" width="1295px" height="650px" version="1.1" style="shape-rendering:geometricPrecision; text-rendering:geometricPrecision; image-rendering:optimizeQuality; fill-rule:evenodd; clip-rule:evenodd"
viewBox="0 0 1293.32 648.76"
 xmlns:xlink="http://www.w3.org/1999/xlink"
 xmlns:xodm="http://www.corel.com/coreldraw/odm/2003">
 <defs>
  <style type="text/css">
   <![CDATA[
    .fil0 {fill:#FEFEFE;fill-rule:nonzero}
   ]]>
  </style>
 </defs>
 <g id="Слой_x0020_1">
  <metadata id="CorelCorpID_0Corel-Layer"/>
  <g id="_1803887594016">
   <path class="fil0" d="M172.53 72.24c0,6.38 -1.74,11.08 -5.31,14.04 -4.48,3.92 -11.64,5.86 -21.53,5.86l-78.75 0 0 -39.47 78.75 0c9.68,0 16.88,1.85 21.53,5.59 3.57,2.97 5.31,7.5 5.31,13.43l0 0.55zm58.28 54.64c-7.68,-7.82 -18.97,-13.14 -33.9,-15.94 13.09,-2.63 23.72,-8.05 31.93,-16.28 9.01,-8.93 13.47,-19.95 13.47,-33.04l0 -2.51c0,-16.28 -4.86,-28.74 -14.59,-37.52 -14.15,-12.54 -38.52,-18.8 -73.08,-18.8l-154.64 0 0 206.3c11.08,-1.34 23.11,-2.8 36.07,-4.36 10.36,-1.29 20.65,-2.45 30.87,-3.52l0 -57.77 70.3 0c14.6,0 24.84,2.68 30.82,8.11 3.02,2.8 5.14,6.54 6.49,11.18 1.28,4.7 1.94,10.46 1.94,17.38l0 12.26c22.87,-1.23 45.41,-2.08 67.5,-2.63l0 -27.01c0,-14.71 -4.4,-26.68 -13.18,-35.85z"/>
   <path class="fil0" d="M310.6 2.79l0 186.12c22.87,0 45.19,0.32 66.94,0.89l0 -187.01 -66.94 0z"/>
   <path class="fil0" d="M628.75 144c0,5.43 -1.57,9.61 -4.76,12.57 -4.08,4.15 -10.73,6.17 -19.9,6.17l-86.52 0 0 -36.97 86.52 0c9.33,0 15.99,1.67 19.9,5.03 3.19,2.62 4.76,6.64 4.76,12.07l0 1.13zm-111.18 -94.95l81.2 0c8.06,0 13.7,1.44 16.96,4.29 3.29,2.91 4.91,7 4.91,12.19l0 0.57c0,11.01 -7.27,16.54 -21.87,16.54l-81.2 0 0 -33.59zm166.93 61.05c-8.62,-6.92 -19.91,-11.56 -33.88,-14.03 4.31,-0.57 8.67,-1.8 13.13,-3.74 4.53,-2.02 8.72,-4.54 12.65,-7.73 9.12,-7.84 13.71,-17.95 13.71,-30.26l0 -2.51c0,-14.21 -5.21,-25.5 -15.67,-33.89 -12.92,-10.12 -33.05,-15.14 -60.5,-15.14l-163.36 0 0 189.57c37.8,1.73 73.53,3.9 106.87,6.11 27.01,1.78 63.01,3.9 104.8,5.81 8.28,-2.98 15.21,-6.94 20.86,-11.87 11.96,-10.05 17.96,-24.04 17.96,-42l0 -2.79c0,-15.89 -5.55,-28.41 -16.57,-37.53z"/>
   <path class="fil0" d="M839.35 129.12l34.18 -77.85 35 77.85 -69.18 0zm79.58 -126.33l-88.24 0 -92.89 204.52 66.1 1.73 14.98 -33.96 110.12 0 15.49 34.46 70.53 -1.85 -96.09 -204.9z"/>
   <path class="fil0" d="M1284.84 116.93c-2.91,-7.16 -7.72,-13.31 -14.43,-18.34 -15.49,-11.19 -41.26,-17.34 -77.28,-18.46l-29.42 -0.85c-14.6,-0.2 -24.94,-2.17 -31.09,-5.93 -5.04,-2.56 -7.55,-6.59 -7.55,-12.02 0,-2.78 0.55,-5.19 1.78,-7.15 1.24,-1.96 3.3,-3.7 6.33,-5.13 6.71,-3.2 18.28,-4.77 34.73,-4.77l2.51 0c16.61,0 28.46,2.41 35.57,7.27 2.79,2.08 4.75,4.2 5.87,6.43 1.12,2.24 1.95,4.76 2.52,7.55l71.2 0 0 -2.23c0,-18.29 -6.39,-32.5 -19.08,-42.55 -17.56,-13.81 -48.1,-20.75 -91.6,-20.75l-10.63 0c-40.93,0 -70.13,6.09 -87.68,18.23 -14.21,10.07 -21.31,24.82 -21.31,44.22l0 2.52c0,17.95 6.53,32.06 19.63,42.35 15.1,12.13 39.87,18.72 74.2,19.83l28.58 0.85c15.88,0.22 27.01,2.18 33.33,5.87 2.79,1.75 4.76,3.63 5.88,5.76 1.17,2.19 1.73,4.75 1.73,7.72 0,3.19 -0.56,5.98 -1.58,8.39 -0.99,2.45 -3,4.59 -6.03,6.43 -7.43,4.69 -20.24,7.03 -38.37,7.03l-1.68 0c-17.72,0 -30.42,-3.46 -38.08,-10.4 -4.86,-4.29 -7.49,-9.87 -7.82,-16.77l-72.32 0 0 2.52c0,11.75 2.24,21.75 6.72,29.98 6.54,11.96 17.38,21.24 32.49,28.01 0.56,0.23 1.06,0.45 1.61,0.67 68.23,-5.19 129.2,-13.98 173.65,-27.79 6.15,-1.89 12.14,-3.57 18.01,-5.04 2.63,-7.26 3.96,-15.59 3.96,-24.98l0 -3.37c0,-9.56 -1.44,-17.88 -4.35,-25.1z"/>
   <path class="fil0" d="M139.7 363.61c2.8,-2.42 4.21,-6.2 4.21,-11.35 0,-5.16 -1.41,-8.95 -4.21,-11.38 -2.78,-2.42 -7.2,-3.64 -13.22,-3.64l-68.21 0 0 30.02 68.21 0c6.02,0 10.44,-1.21 13.22,-3.65zm71.28 88.83l-65.97 0 -28.69 -47.45 -58.05 0 0 47.45 -56.93 0 0 -157.57 142.12 0c22.66,0 38.92,4.35 48.77,13.04 9.86,8.67 14.77,21.91 14.77,39.71 0,13.53 -2.93,23.77 -8.8,30.68 -5.89,6.91 -14.28,11.6 -25.17,14.11l0 2 37.95 58.03z"/>
   <path class="fil0" d="M398.35 404.44c8.68,-7.13 13.02,-17.4 13.02,-30.79 0,-13.37 -4.34,-23.64 -13.02,-30.78 -8.69,-7.13 -21.64,-10.71 -38.84,-10.71 -17.22,0 -30.13,3.58 -38.74,10.71 -8.61,7.14 -12.9,17.41 -12.9,30.78 0,13.39 4.29,23.66 12.9,30.79 8.61,7.15 21.52,10.71 38.74,10.71 17.2,0 30.15,-3.56 38.84,-10.71zm46.67 -94.34c19.2,13.83 28.8,35.01 28.8,63.55 0,28.56 -9.6,49.74 -28.8,63.56 -19.21,13.82 -47.7,20.75 -85.51,20.75 -37.66,0 -66.1,-6.93 -85.3,-20.75 -19.2,-13.82 -28.79,-35 -28.79,-63.56 0,-28.54 9.59,-49.72 28.79,-63.55 19.2,-13.83 47.64,-20.75 85.3,-20.75 37.81,0 66.3,6.92 85.51,20.75z"/>
   <path class="fil0" d="M666.92 404.44c8.67,-7.13 13,-17.4 13,-30.79 0,-13.37 -4.33,-23.64 -13,-30.78 -8.69,-7.13 -21.64,-10.71 -38.86,-10.71 -17.2,0 -30.11,3.58 -38.72,10.71 -8.61,7.14 -12.9,17.41 -12.9,30.78 0,13.39 4.29,23.66 12.9,30.79 8.61,7.15 21.52,10.71 38.72,10.71 17.22,0 30.17,-3.56 38.86,-10.71zm46.66 -94.34c19.21,13.83 28.8,35.01 28.8,63.55 0,28.56 -9.59,49.74 -28.8,63.56 -19.2,13.82 -47.7,20.75 -85.52,20.75 -37.64,0 -66.08,-6.93 -85.28,-20.75 -19.21,-13.82 -28.79,-35 -28.79,-63.56 0,-28.54 9.58,-49.72 28.79,-63.55 19.2,-13.83 47.64,-20.75 85.28,-20.75 37.82,0 66.32,6.92 85.52,20.75z"/>
   <polygon class="fil0" points="1034.13,452.44 977.2,452.44 977.2,345.2 975.87,345.2 930.85,452.44 887.81,452.44 842.13,343.86 840.58,343.86 840.58,452.44 786.74,452.44 786.74,294.87 874.13,294.87 908.77,383.37 910.32,383.37 944.31,294.87 1034.13,294.87 "/>
   <path class="fil0" d="M1204.82 328.87c-6.25,-2.8 -15.27,-4.2 -27.03,-4.2 -12.06,0 -20.66,1.13 -25.82,3.41 -5.15,2.28 -7.72,5.63 -7.72,10.05 0,3.54 1.53,6.1 4.62,7.73 3.1,1.61 8.38,2.79 15.89,3.52l64.23 5.29c19.4,1.62 34.02,6.26 43.79,13.91 9.79,7.66 14.69,19.2 14.69,34.65 0,14.56 -3.94,25.82 -11.81,33.77 -7.87,7.94 -19.43,13.41 -34.65,16.43 -15.22,3.02 -35.33,4.53 -60.35,4.53 -23.99,0 -43.41,-1.62 -58.26,-4.85 -14.86,-3.24 -26.3,-9.06 -34.32,-17.44 -8.02,-8.39 -12.32,-20.22 -12.91,-35.53l66.21 0c1.61,8.38 5.69,14.16 12.24,17.32 6.54,3.17 16.29,4.75 29.24,4.75 13.25,0 22.78,-1.22 28.59,-3.64 5.79,-2.43 8.7,-6.22 8.7,-11.37 0,-4.26 -1.69,-7.36 -5.07,-9.27 -3.38,-1.9 -8.46,-3.16 -15.22,-3.74l-61.79 -5.97c-19.57,-1.91 -34.28,-6.4 -44.15,-13.46 -9.86,-7.06 -14.77,-18.32 -14.77,-33.76 0,-13.09 3.93,-23.42 11.8,-31 7.88,-7.58 19.13,-12.92 33.76,-16.01 14.63,-3.09 33,-4.64 55.05,-4.64 21.93,0 40.18,1.59 54.75,4.75 14.55,3.17 25.92,8.64 34.08,16.44 8.17,7.8 12.48,18.46 12.91,32l-65.53 0c-1.18,-6.32 -4.9,-10.89 -11.15,-13.67z"/>
   <polygon class="fil0" points="6.26,609.25 923.69,609.25 923.69,597.06 6.26,597.06 "/>
   <path class="fil0" d="M1011.78 631.66c0.93,0 1.66,0.34 2.21,1.01 0.55,0.68 0.7,1.48 0.45,2.41l-1.9 8.99c-0.17,0.93 -0.66,1.73 -1.46,2.41 -0.8,0.68 -1.67,1.01 -2.6,1.01l-55.48 0c-0.93,0 -1.67,-0.33 -2.22,-1.01 -0.55,-0.68 -0.74,-1.48 -0.57,-2.41l17.48 -81.83c0.17,-0.93 0.66,-1.73 1.46,-2.41 0.8,-0.67 1.67,-1.01 2.6,-1.01l10.26 0c0.93,0 1.66,0.34 2.21,1.01 0.55,0.68 0.74,1.48 0.57,2.41l-14.82 69.42 41.81 0zm21.66 -46.62c0.17,-0.93 0.67,-1.73 1.52,-2.41 0.84,-0.67 1.73,-1.01 2.66,-1.01l9.63 0c0.93,0 1.64,0.34 2.15,1.01 0.51,0.68 0.68,1.48 0.51,2.41l-6.84 32.18c-1.1,5.06 -0.89,9.12 0.63,12.16 1.52,3.04 4.73,4.56 9.63,4.56 4.47,0 8.21,-1.52 11.21,-4.56 3,-3.04 5.04,-7.1 6.14,-12.16l6.84 -32.18c0.17,-0.93 0.68,-1.73 1.52,-2.41 0.85,-0.67 1.73,-1.01 2.66,-1.01l9.63 0c0.93,0 1.65,0.34 2.15,1.01 0.51,0.68 0.68,1.48 0.51,2.41l-12.54 59.03c-0.17,0.93 -0.66,1.73 -1.46,2.41 -0.8,0.68 -1.66,1.01 -2.59,1.01l-9.63 0c-0.93,0 -1.67,-0.33 -2.22,-1.01 -0.55,-0.68 -0.74,-1.48 -0.57,-2.41l0.63 -2.91c-1.94,2.36 -4.24,4.22 -6.9,5.57 -2.66,1.35 -6.36,2.03 -11.08,2.03 -4.48,0 -8.28,-0.8 -11.4,-2.41 -3.13,-1.6 -5.56,-3.76 -7.29,-6.46 -1.73,-2.7 -2.83,-5.85 -3.29,-9.44 -0.47,-3.59 -0.28,-7.36 0.57,-11.33l7.22 -34.08zm91.46 38.64c-0.51,2.62 -0.44,4.7 0.19,6.27 0.63,1.56 2.43,2.34 5.38,2.34l10.26 0c0.93,0 1.65,0.34 2.16,1.01 0.5,0.68 0.67,1.48 0.5,2.41l-1.77 8.36c-0.17,0.93 -0.65,1.73 -1.46,2.41 -0.8,0.68 -1.67,1.01 -2.59,1.01l-8.11 0c-7.94,0 -13.83,-2.05 -17.67,-6.14 -3.84,-4.1 -4.96,-9.86 -3.36,-17.29l5.83 -27.24 -8.36 0c-0.93,0 -1.67,-0.34 -2.22,-1.01 -0.55,-0.68 -0.74,-1.48 -0.57,-2.41l1.78 -8.36c0.16,-0.93 0.67,-1.73 1.51,-2.41 0.85,-0.67 1.74,-1.01 2.66,-1.01l8.36 0 4.44 -20.65c0.17,-0.93 0.65,-1.73 1.45,-2.4 0.81,-0.68 1.67,-1.02 2.6,-1.02l9.63 0c0.93,0 1.67,0.34 2.22,1.02 0.54,0.67 0.73,1.47 0.57,2.4l-4.44 20.65 16.34 0c0.93,0 1.65,0.34 2.16,1.01 0.5,0.68 0.67,1.48 0.5,2.41l-1.77 8.36c-0.17,0.93 -0.65,1.73 -1.46,2.41 -0.8,0.67 -1.66,1.01 -2.59,1.01l-16.35 0 -5.82 26.86zm67.9 4.94c0.25,-0.93 0.15,-1.69 -0.32,-2.28 -0.46,-0.59 -1.39,-1.14 -2.79,-1.65 -1.39,-0.51 -3.27,-1.01 -5.63,-1.52 -2.37,-0.51 -5.32,-1.18 -8.87,-2.03 -3.55,-0.84 -6.4,-1.96 -8.55,-3.35 -2.15,-1.4 -3.78,-3.02 -4.88,-4.88 -1.1,-1.86 -1.69,-3.93 -1.77,-6.21 -0.09,-2.28 0.12,-4.69 0.63,-7.22 0.51,-2.53 1.42,-4.96 2.73,-7.28 1.3,-2.32 3.1,-4.35 5.38,-6.08 2.28,-1.73 5.13,-3.13 8.55,-4.18 3.42,-1.06 7.49,-1.59 12.22,-1.59 3.8,0 7.2,0.47 10.2,1.4 3,0.93 5.55,2.15 7.66,3.67 2.12,1.52 3.76,3.27 4.94,5.26 1.19,1.98 1.82,3.99 1.9,6.02 0.09,0.92 -0.35,1.73 -1.32,2.4 -0.98,0.68 -1.93,1.01 -2.85,1.01l-9.76 0c-1.27,0 -2.17,-0.23 -2.72,-0.69 -0.55,-0.47 -1.14,-0.99 -1.78,-1.58 -0.63,-0.6 -1.52,-1.12 -2.66,-1.59 -1.14,-0.46 -2.97,-0.7 -5.51,-0.7 -2.53,0 -4.85,0.39 -6.96,1.15 -2.11,0.75 -3.38,2.11 -3.8,4.05 -0.17,0.93 -0.09,1.71 0.25,2.34 0.34,0.64 1.1,1.21 2.28,1.71 1.18,0.51 2.87,1.04 5.07,1.59 2.19,0.54 5.06,1.2 8.61,1.96 3.63,0.76 6.61,1.84 8.93,3.23 2.32,1.39 4.1,3.02 5.32,4.88 1.23,1.85 1.94,3.92 2.15,6.2 0.22,2.28 0.07,4.69 -0.44,7.22 -0.5,2.54 -1.46,4.95 -2.85,7.22 -1.39,2.29 -3.33,4.29 -5.82,6.02 -2.5,1.73 -5.56,3.11 -9.19,4.12 -3.63,1.01 -7.98,1.52 -13.05,1.52 -4.14,0 -7.81,-0.53 -11.02,-1.58 -3.21,-1.06 -5.89,-2.41 -8.04,-4.06 -2.16,-1.64 -3.78,-3.52 -4.88,-5.63 -1.1,-2.12 -1.6,-4.23 -1.52,-6.34 0.08,-0.93 0.57,-1.73 1.46,-2.41 0.88,-0.67 1.79,-1.01 2.72,-1.01l9.75 0c1.27,0 2.16,0.3 2.67,0.89 0.5,0.59 1.09,1.26 1.77,2.02 0.68,0.76 1.65,1.44 2.91,2.03 1.27,0.59 3.34,0.89 6.21,0.89 1.27,0 2.6,-0.09 3.99,-0.26 1.39,-0.16 2.7,-0.44 3.93,-0.82 1.22,-0.38 2.28,-0.89 3.16,-1.52 0.89,-0.63 1.42,-1.41 1.59,-2.34zm48.26 -8.49l-5.07 23.94c-0.17,0.93 -0.65,1.73 -1.45,2.41 -0.81,0.68 -1.67,1.01 -2.6,1.01l-9.63 0c-0.93,0 -1.67,-0.33 -2.21,-1.01 -0.55,-0.68 -0.74,-1.48 -0.58,-2.41l17.74 -83.1c0.17,-0.93 0.66,-1.73 1.46,-2.4 0.8,-0.68 1.66,-1.02 2.59,-1.02l9.63 0c0.93,0 1.67,0.34 2.22,1.02 0.55,0.67 0.74,1.47 0.57,2.4l-8.87 41.55 25.72 -18.75c0.59,-0.42 1.35,-0.88 2.28,-1.39 0.93,-0.51 1.98,-0.76 3.16,-0.76l14.82 0c0.85,0 1.5,0.3 1.97,0.89 0.46,0.59 0.61,1.31 0.44,2.15 -0.08,0.42 -0.25,0.82 -0.51,1.2 -0.25,0.38 -0.71,0.83 -1.39,1.33l-35.21 25.85 25.08 29.01c0.42,0.5 0.67,0.92 0.76,1.26 0.08,0.34 0.08,0.72 0,1.14 -0.17,0.85 -0.62,1.56 -1.33,2.15 -0.72,0.6 -1.5,0.89 -2.35,0.89l-9.88 0c-1.26,0 -2.3,-0.25 -3.1,-0.76 -0.8,-0.5 -1.37,-0.97 -1.71,-1.39l-22.55 -25.21z"/>
  </g>
 </g>
</svg>
